<svg width="127" height="37" viewBox="0 0 127 37" fill="none" xmlns="http://www.w3.org/2000/svg">
<path d="M27.4173 6.83064C27.3934 6.652 27.2359 6.55214 27.1065 6.54088C26.977 6.52963 24.4522 6.49165 24.4522 6.49165C24.4522 6.49165 22.3409 4.44084 22.1313 4.23266C21.9232 4.02448 21.5152 4.08637 21.3563 4.1342C21.3563 4.1342 20.9596 4.25657 20.2957 4.46334C20.1846 4.10326 20.0214 3.66018 19.788 3.21569C19.0368 1.78097 17.9355 1.02281 16.6048 1.02H16.6006C16.5078 1.02 16.4163 1.02844 16.3235 1.03688C16.2841 0.989057 16.2447 0.944047 16.204 0.89763C15.6244 0.277322 14.8818 -0.025097 13.9914 0.00162825C12.2725 0.050859 10.5621 1.29148 9.1738 3.49561C8.19762 5.04708 7.45494 6.99521 7.24395 8.50308C5.2705 9.11354 3.89064 9.54115 3.8611 9.55099C2.86523 9.86326 2.83429 9.8942 2.70347 10.8338C2.60642 11.5441 0 31.695 0 31.695L21.8388 35.4717L31.3037 33.1185C31.3037 33.1185 27.4412 7.00928 27.4173 6.83064ZM19.2028 4.80093C18.6992 4.95706 18.1282 5.13288 17.5079 5.32558C17.4952 4.45631 17.3911 3.24523 16.986 2.19873C18.2899 2.44629 18.9327 3.92181 19.2028 4.80093ZM16.3657 5.68005C15.2207 6.03451 13.9717 6.42132 12.7198 6.80813C13.0715 5.45921 13.741 4.11591 14.5611 3.23539C14.8663 2.90765 15.2939 2.54194 15.7989 2.33376C16.2743 3.32541 16.377 4.7306 16.3657 5.68005ZM14.0237 1.14519C14.4274 1.13675 14.7664 1.22537 15.0576 1.41526C14.5934 1.65578 14.1447 2.00321 13.7227 2.45473C12.6312 3.62642 11.7943 5.44374 11.4609 7.19776C10.42 7.51987 9.40308 7.83495 8.46628 8.12471C9.05846 5.36356 11.3723 1.22114 14.0237 1.14519Z" fill="#95BF47"/>
<path d="M27.106 6.54188C26.9766 6.53063 24.4518 6.49265 24.4518 6.49265C24.4518 6.49265 22.3405 4.44184 22.1309 4.23367C22.0535 4.1563 21.948 4.11551 21.8369 4.09863L21.8383 35.4713L31.3019 33.1195C31.3019 33.1195 27.4408 7.01168 27.4155 6.83164C27.393 6.6516 27.2354 6.55173 27.106 6.54188Z" fill="#5E8E3E"/>
<path d="M16.5938 11.4072L15.4953 15.5201C15.4953 15.5201 14.2687 14.9617 12.8157 15.0531C10.6847 15.1881 10.6608 16.5328 10.6833 16.8704C10.8001 18.7103 15.6388 19.1111 15.9102 23.4195C16.124 26.8094 14.1126 29.1275 11.2136 29.3103C7.73512 29.5298 5.81934 27.4775 5.81934 27.4775L6.55639 24.3422C6.55639 24.3422 8.48483 25.7967 10.0279 25.6996C11.035 25.6363 11.3951 24.8163 11.3599 24.2368C11.208 21.8371 7.26813 21.9792 7.01916 18.0365C6.80958 14.7198 8.98839 11.358 13.7961 11.0542C15.6458 10.936 16.5938 11.4072 16.5938 11.4072Z" fill="white"/>
<path d="M43.7676 20.0202C42.6789 19.4294 42.1205 18.9315 42.1205 18.2479C42.1205 17.3772 42.897 16.8174 44.1108 16.8174C45.5231 16.8174 46.7848 17.4081 46.7848 17.4081L47.7792 14.3615C47.7792 14.3615 46.865 13.6455 44.1727 13.6455C40.427 13.6455 37.8304 15.7906 37.8304 18.8063C37.8304 20.5167 39.0429 21.822 40.6605 22.7546C41.9658 23.5001 42.4328 24.029 42.4328 24.8068C42.4328 25.6156 41.7801 26.2683 40.5676 26.2683C38.7616 26.2683 37.0554 25.3357 37.0554 25.3357L35.999 28.3824C35.999 28.3824 37.5758 29.4401 40.2272 29.4401C44.0827 29.4401 46.8495 27.5441 46.8495 24.1232C46.8453 22.289 45.4471 20.9837 43.7676 20.0202Z" fill="#26272C"/>
<path d="M59.1275 13.6149C57.2314 13.6149 55.739 14.5165 54.5884 15.8837L54.5265 15.8528L56.1737 7.24023H51.8821L47.7158 29.1592H52.0073L53.4378 21.6663C53.9977 18.8362 55.4577 17.0962 56.8263 17.0962C57.7898 17.0962 58.164 17.7489 58.164 18.6829C58.164 19.2736 58.1021 19.9882 57.9769 20.579L56.3607 29.1592H60.6523L62.3303 20.2976C62.5174 19.3651 62.6426 18.2454 62.6426 17.4999C62.6398 15.0764 61.3654 13.6149 59.1275 13.6149Z" fill="#26272C"/>
<path d="M72.34 13.6143C67.1778 13.6143 63.7598 18.2785 63.7598 23.4703C63.7598 26.7968 65.8106 29.4708 69.6675 29.4708C74.7354 29.4708 78.1548 24.9317 78.1548 19.6148C78.1548 16.5372 76.3516 13.6143 72.34 13.6143ZM70.2259 26.1751C68.7644 26.1751 68.1427 24.9317 68.1427 23.3774C68.1427 20.9215 69.4185 16.9113 71.7492 16.9113C73.2726 16.9113 73.7691 18.2166 73.7691 19.4924C73.7705 22.134 72.4961 26.1751 70.2259 26.1751Z" fill="#26272C"/>
<path d="M89.129 13.6143C86.2328 13.6143 84.5899 16.1644 84.5899 16.1644H84.528L84.777 13.8632H80.9834C80.7977 15.4175 80.4545 17.7806 80.1127 19.5529L77.1279 35.2533H81.4194L82.5996 28.911H82.6938C82.6938 28.911 83.5743 29.4708 85.2116 29.4708C90.2486 29.4708 93.5429 24.31 93.5429 19.0859C93.5443 16.1954 92.2699 13.6143 89.129 13.6143ZM85.026 26.237C83.9119 26.237 83.2536 25.6153 83.2536 25.6153L83.9696 21.6051C84.4675 18.9312 85.8657 17.1589 87.3595 17.1589C88.6648 17.1589 89.0699 18.3714 89.0699 19.5219C89.0671 22.2887 87.42 26.237 85.026 26.237Z" fill="#26272C"/>
<path d="M99.6698 7.45898C98.3026 7.45898 97.2139 8.54768 97.2139 9.94584C97.2139 11.2202 98.0227 12.0909 99.2351 12.0909H99.297C100.635 12.0909 101.784 11.1893 101.815 9.60404C101.815 8.36061 100.975 7.45898 99.6698 7.45898Z" fill="#26272C"/>
<path d="M93.6689 29.1605H97.959L100.882 13.958H96.5595L93.6689 29.1605Z" fill="#26272C"/>
<path d="M111.794 13.9266H108.81L108.964 13.2107C109.213 11.7492 110.084 10.4439 111.515 10.4439C112.278 10.4439 112.882 10.6619 112.882 10.6619L113.721 7.30439C113.721 7.30439 112.976 6.93164 111.389 6.93164C109.866 6.93164 108.344 7.36628 107.192 8.36214C105.731 9.60557 105.047 11.4088 104.705 13.2121L104.581 13.928H102.591L101.969 17.1618H103.96L101.689 29.1628H105.981L108.251 17.1618H111.205L111.794 13.9266Z" fill="#26272C"/>
<path d="M122.116 13.9575C122.116 13.9575 119.434 20.7147 118.23 24.4028H118.168C118.086 23.2142 117.11 13.9575 117.11 13.9575H112.602L115.183 27.9165C115.246 28.2273 115.214 28.4144 115.09 28.6324C114.592 29.596 113.752 30.5285 112.758 31.2135C111.949 31.8043 111.048 32.1771 110.333 32.426L111.515 36.0635C112.385 35.8764 114.188 35.1619 115.712 33.7313C117.671 31.8971 119.473 29.0671 121.338 25.2116L126.593 13.9561L122.116 13.9575Z" fill="#26272C"/>
</svg>
