<svg width="226" height="46" viewBox="0 0 226 46" fill="none" xmlns="http://www.w3.org/2000/svg">
<g clip-path="url(#clip0_186_5309)">
<path d="M18.92 25.0998L9.76 33.4098V44.7498H0V2.2998H9.76V22.3698L31.29 2.2998H43.96L25.77 18.8498L44.81 44.7398H33.23L18.92 25.0898V25.0998Z" fill="black"/>
<path d="M58.2801 0V44.75H49.0601V0H58.2801Z" fill="black"/>
<path d="M102.3 28.6201C102.3 40.8101 92.48 45.6601 83.02 45.6601C73.56 45.6601 63.74 40.8101 63.74 28.6201C63.74 16.4301 73.62 11.5801 83.02 11.5801C92.42 11.5801 102.3 16.4301 102.3 28.6201ZM93.69 28.6201C93.69 22.9201 90.78 17.8901 83.02 17.8901C75.26 17.8901 72.41 22.9201 72.41 28.6201C72.41 34.3201 75.26 39.2901 83.02 39.2901C90.78 39.2901 93.69 34.2601 93.69 28.6201Z" fill="black"/>
<path d="M107.76 33.8402V12.4302H116.98V31.5302C116.98 35.4102 119.22 38.7502 124.92 38.7502C130.62 38.7502 133.17 35.2902 133.17 31.5302V12.4302H142.39V44.7502H133.17V40.2002C131.78 42.1402 127.83 45.6602 120.92 45.6602C112.61 45.6602 107.76 41.1102 107.76 33.8402Z" fill="black"/>
<path d="M162.46 18.7401V32.3201C162.46 37.6001 164.4 38.6301 171.92 37.8401V44.7501C170.71 44.9301 169.25 45.2401 167.13 45.2401C155.49 45.2401 153.24 40.2101 153.24 32.1401V18.7401H147.24V12.4301H153.24V4.06006H162.46V12.4301H171.92V18.7401H162.46Z" fill="black"/>
<path d="M177.81 4.37C177.81 1.58 179.75 0 182.54 0C185.33 0 187.33 1.58 187.33 4.37C187.33 7.16 185.33 8.68 182.54 8.68C179.75 8.68 177.81 7.1 177.81 4.37ZM177.99 12.43H187.15V44.75H177.99V12.43Z" fill="#00E7FF"/>
<path d="M199.7 2.2998H193.21V9.8198H198.73C208.86 9.8198 215.28 12.6098 215.28 23.5198C215.28 34.4298 208.85 37.2198 198.73 37.2198H193.21V44.7398H199.7C212.92 44.7398 225.29 40.4298 225.29 23.5198C225.29 6.60981 212.92 2.2998 199.7 2.2998Z" fill="#00E7FF"/>
</g>
<defs>
<clipPath id="clip0_186_5309">
<rect width="225.29" height="45.66" fill="white"/>
</clipPath>
</defs>
</svg>
