<svg width="197" height="40" viewBox="0 0 197 40" fill="none" xmlns="http://www.w3.org/2000/svg">
<g clip-path="url(#clip0_203_5428)">
<path d="M16.5442 21.9884L8.53442 29.2683V39.2026H0V2.01465H8.53442V19.5968L27.3609 2.01465H38.4399L22.534 16.5131L39.1831 39.1938H29.0573L16.5442 21.9796V21.9884Z" fill="white"/>
<path d="M50.9616 0V39.2028H42.8994V0H50.9616Z" fill="white"/>
<path d="M89.454 25.0723C89.454 35.7512 80.8672 40 72.5951 40C64.323 40 55.7361 35.7512 55.7361 25.0723C55.7361 14.3933 64.3754 10.1445 72.5951 10.1445C80.8147 10.1445 89.454 14.3933 89.454 25.0723ZM81.9252 25.0723C81.9252 20.0788 79.3806 15.6723 72.5951 15.6723C65.8095 15.6723 63.3174 20.0788 63.3174 25.0723C63.3174 30.0657 65.8095 34.4196 72.5951 34.4196C79.3806 34.4196 81.9252 30.0131 81.9252 25.0723Z" fill="white"/>
<path d="M94.2285 29.6457V10.8896H102.291V27.622C102.291 31.0211 104.249 33.947 109.234 33.947C114.218 33.947 116.448 30.9159 116.448 27.622V10.8896H124.51V39.2033H116.448V35.2173C115.232 36.9168 111.778 40.0005 105.736 40.0005C98.4695 40.0005 94.2285 36.0145 94.2285 29.6457Z" fill="white"/>
<path d="M142.06 16.4169V28.3135C142.06 32.939 143.756 33.8414 150.332 33.1493V39.2027C149.274 39.3604 147.997 39.632 146.143 39.632C135.965 39.632 133.998 35.2255 133.998 28.1559V16.4169H128.751V10.8891H133.998V3.55664H142.06V10.8891H150.332V16.4169H142.06Z" fill="white"/>
<path d="M155.482 3.8283C155.482 1.38414 157.179 0 159.618 0C162.058 0 163.807 1.38414 163.807 3.8283C163.807 6.27245 162.058 7.60403 159.618 7.60403C157.179 7.60403 155.482 6.21989 155.482 3.8283ZM155.64 10.8892H163.649V39.2028H155.64V10.8892Z" fill="#00E7FF"/>
<path d="M174.624 2.01465H168.948V8.60247H173.775C182.633 8.60247 188.247 11.0466 188.247 20.6042C188.247 30.1618 182.625 32.606 173.775 32.606H168.948V39.1938H174.624C186.183 39.1938 197 35.4181 197 20.6042C197 5.79038 186.183 2.01465 174.624 2.01465Z" fill="#00E7FF"/>
</g>
<defs>
<clipPath id="clip0_203_5428">
<rect width="197" height="40" fill="white"/>
</clipPath>
</defs>
</svg>
